Patient4_TMGait_0pt6_02_left_29_EMG.mot
version=1
nRows=27
nColumns=33
inDegrees=no
endheader
time	1LAddLong	2LGlutMax	3LGlutMed	4LIliopsoas	5LSemiMemb	6LBicFemLong	7LRecFem	8LVastMed	9LVastLat	10LGasMed	11LTibAnt	12lTibPost	13LPeroneusLong	14LSol	15LExtDigLong	16LFlexDigLong	17RAddLong	18RGlutMax	19RGlutMed	20RIliopsoas	21RSemiMemb	22RBicFemLong	23RRecFem	24RVastMed	25RVastLat	26RGasMed	27RTibAnt	28RTibPost	29RPeroneusLong	30RSol	31RExtDigLong	32RFlexDigLong
35.882	0.020905	0.065918	0.09491	-0.00824	-0.042419	-0.095825	-0.20325	0.011597	0.080566	-0.21637	0.084534	0.016022	0.2095	-0.37079	0.47104	0.42313	0.19516	1.3872	0.49515	0.010071	-0.014648	-0.053406	0.46097	-0.099945	0.012207	-0.001068	0.70221	-0.002747	-0.17487	-0.034485	-0.007324	-0.022888
35.883	0.018311	-0.16968	-0.002289	-0.005188	-0.053711	-0.024261	-0.2002	0.00946	0.12955	-0.78964	0.12421	-0.12344	0.25833	-0.20386	0.23865	-0.066833	0.15671	1.4667	0.2832	0.039368	-0.089569	-0.020599	0.45883	-0.16602	0.021362	0.008698	0.30792	0.000153	-0.13138	-0.14099	-0.006104	-0.021973
35.884	0.025024	-0.34912	-0.019073	-0.003967	-0.062561	0.13412	-0.12695	0.005646	0.1799	-0.091705	-0.14282	0.26596	0.18967	-0.10971	0.72296	0.23743	0.14511	1.4371	-0.083466	0.088959	-0.13977	-0.011292	0.4599	-0.1561	0.006561	0.025787	-0.00824	0.000763	-0.004425	-0.32044	-0.016937	-0.022125
35.885	0.00885	-0.51437	-0.008392	0.001678	-0.068512	0.31906	-0.10101	-0.004578	0.20615	-0.15686	-0.10513	0.23163	0.062103	0.04837	0.002289	-0.93826	0.13168	1.4572	-0.12222	0.029297	-0.16251	-0.064697	0.46524	-0.14648	0.010223	0.007935	-0.23468	0.001678	-0.030518	-0.36941	-0.011139	-0.021973
35.886	0.00885	-0.57663	0.10376	-0.000153	-0.010834	0.30792	-0.082703	-0.005188	0.26398	-0.88608	0.070496	-0.16892	0.035706	0.38498	0.31586	-0.13382	0.080566	1.3899	0.2002	0.020294	-0.11444	-0.12039	0.3244	-0.15823	0.004883	0.003052	-0.007782	0.004883	-0.096893	-0.26489	-0.009308	-0.015259
35.887	0.000305	-0.54489	0.14633	-0.016785	0.022583	0.28061	-0.098572	0.000763	0.23041	-1.268	0.052948	-0.097198	0.072021	0.59403	-0.17303	0.49957	0.030212	1.2404	-0.00885	0.086517	-0.083313	-0.1651	-0.00473	-0.22415	-0.029907	-0.00061	0.94864	0.004578	-0.17624	-0.1947	-0.011139	-0.015259
35.888	0.006866	-0.47211	0.10162	-0.021973	-0.048218	0.29373	-0.10666	0.015869	0.15259	-0.97687	-0.061493	-0.020905	0.013885	0.62943	-0.77133	-1.7152	-0.001984	1.1675	-0.010376	-0.005798	-0.028381	-0.19989	-0.16556	-0.21774	-0.047913	0.003662	0.93094	0.006409	-0.20218	-0.15015	-0.007324	-0.016174
35.889	0.013885	-0.50262	-0.030518	-0.019226	-0.083618	0.24567	-0.12039	0.037079	0.10605	-0.83069	-0.093994	0.24323	-0.034027	0.62866	-0.97397	0.51651	0.050812	0.96832	-0.010223	-0.092621	-0.000763	-0.20325	-0.09613	-0.2562	-0.035858	-0.014648	0.34332	0	-0.20599	0.010223	-0.014343	-0.022278
35.89	0.013428	-0.62912	-0.17273	-0.016937	-0.037842	0.058594	-0.089417	0.030823	0.052643	-0.82794	-0.081635	0.26169	0.016327	0.74158	-1.0321	-0.44525	0.051575	0.72388	0.052643	-0.16663	-0.018311	-0.19516	-0.037842	-0.3038	-0.019226	-0.020142	0.075684	0.000153	-0.13016	0.11856	-0.010376	-0.027771
35.891	0.01236	-0.63507	-0.19684	-0.00412	-0.005341	-0.065765	0.001068	0.001984	0.016327	-0.63385	-0.11337	-0.5191	-0.053558	0.99243	-0.33981	0.43091	0.036469	0.58243	0.24139	-0.19073	-0.059509	-0.17227	0.054779	-0.26352	-0.018005	-0.018921	0.1062	0.003815	-0.068054	0.016632	-0.012207	-0.019226
35.892	0.008087	-0.67261	-0.13931	-0.010986	0.046539	-0.005035	-0.055084	0.006256	0.17838	-0.35202	0.000153	-0.17532	-0.037231	0.62332	-0.09613	1.241	0.055847	0.35477	0.32638	0.059357	-0.075989	-0.12772	0.027771	-0.24948	0.009308	-0.003967	0.030823	0.002747	0.094757	-0.025635	-0.019226	-0.007935
35.893	0.010529	-0.68756	0.068359	-0.021362	0.078888	0.089111	-0.14435	-0.001526	0.27786	0.11902	0.15091	0.72144	0.065308	-0.1535	0.35706	-1.0855	0.016174	0.17014	0.25711	0.13046	-0.091553	-0.10162	0.12405	-0.16159	0.011139	0.012207	-0.39429	0.004578	0.21866	-0.077667	-0.015717	-0.011292
35.894	0.02243	-0.69916	0.25223	-0.013123	0.044098	0.092926	-0.14725	-0.011292	0.23254	0.20966	0.11414	-0.35568	0.17883	-0.18021	0.23346	-0.41092	-0.012665	-0.015564	0.33218	0.11993	-0.098877	-0.095062	0.41657	-0.014038	0.056763	0.00885	-0.63767	0.003052	0.15732	-0.018921	-0.010986	-0.019073
35.895	0.030823	-0.65567	0.17517	-0.009766	0.000763	0.020905	-0.15701	-0.009308	0.14969	0.59357	0.14816	-0.021667	0.2565	-0.51575	-0.052185	-0.05188	-0.020752	-0.22263	0.19028	0.16388	-0.07019	-0.089569	0.65842	0.17075	0.06485	0.000916	-0.30579	-0.004578	0.016785	0.036011	-0.014496	-0.027466
35.896	0.010223	-0.64377	0.1326	-0.01236	-0.007019	0.224	-0.10361	-0.003052	0.068054	1.2495	0.11856	0.094604	0.072784	-0.33325	-0.036774	0.93048	0.024719	-0.52307	-0.10132	0.15045	-0.06485	-0.05188	0.79254	0.32471	0.076447	-0.001373	0.21576	0.003204	-0.009308	-0.014648	-0.013123	-0.027161
35.897	0.008698	-0.63385	0.052032	-0.017242	-0.011597	0.33905	-0.043488	0.000763	0.12329	1.4111	-0.23804	-0.12833	-0.062103	-0.58945	-0.20142	0.18829	0.040283	-0.68268	-0.28	0.1239	-0.04715	-0.016632	0.61676	0.39047	0.09613	-0.011292	0.22247	0.000458	-0.224	-0.028839	-0.014191	-0.021973
35.898	0.005035	-0.62271	-0.000763	-0.023804	-0.00412	0.056915	-0.00351	0.012665	0.17273	0.64896	-0.28503	-0.28519	-0.031891	-1.0815	-0.06012	0.50659	0.0737	-0.80536	-0.35507	0.051422	-0.02533	0.027771	0.5278	0.44357	0.095825	-0.018463	0.19348	-0.002136	-0.32089	-0.011597	-0.018005	-0.017395
35.899	0.003357	-0.61386	-0.047913	-0.003052	-0.039063	-0.18585	0.037842	0.01297	0.16876	0.074615	-0.21637	-0.14771	-0.031891	-0.67871	-0.011597	-0.10986	0.042725	-0.87372	-0.27359	-0.005798	0.008392	0.0737	0.42679	0.39825	0.088501	-0.010223	0.35858	0.000458	-0.12894	-0.084991	-0.013428	-0.010681
35.9	0.008087	-0.51987	-0.014496	0.019684	-0.056152	-0.56488	-0.013885	0.002136	0.14832	-0.059509	0.096893	-0.12695	-0.043793	-0.62515	0.13992	0.53818	0.021973	-0.89676	-0.15915	0.035706	0.052795	0.057831	0.36499	0.42679	0.089111	0.010071	0.82459	0.001678	0.22614	-0.32608	-0.019226	-0.006409
35.901	0.019226	-0.39688	-0.001984	-0.005951	-0.077209	-0.62332	-0.16846	-0.003967	0.13825	-0.043945	0.33539	-0.096436	-0.063019	-1.1984	0.18021	0.27222	0.022583	-0.80582	-0.048523	0.02533	0.12054	0.080414	0.47928	0.42923	0.079956	0.019073	0.18387	0.001526	0.21362	-0.4686	-0.015869	-0.013733
35.902	0.010529	-0.28153	0.009918	-0.013885	0.003815	-0.42206	-0.19867	-0.004272	0.15839	0.033875	0.20187	-0.054779	-0.070496	-1.2831	0.22949	-0.22156	-0.03479	-0.74631	0.27832	0.029297	0.10925	0.14053	0.51743	0.41779	0.061493	0.005493	0.10605	-0.000458	-0.13748	-0.33386	-0.015869	-0.014648
35.903	0.012665	-0.22263	0.023041	-0.027924	0.024872	-0.03891	-0.14877	-0.014954	0.20172	-0.16113	-0.030975	-0.041962	-0.021057	-0.38803	0.27374	-0.11368	-0.05188	-0.61188	0.48157	0.10208	0.060272	0.18585	0.23666	0.36133	0.074921	-0.002747	0.46707	-0.001984	-0.24155	-0.06897	-0.007629	-0.011139
35.904	0.006561	-0.13016	0.004425	-0.030365	0.000763	0.20584	-0.018616	0.004578	0.19959	-0.40909	0.04715	-0.038147	0.037537	0.14771	0.42145	-0.12482	-0.070038	-0.45013	0.46478	-0.012512	0.029602	0.20981	0.055389	0.35019	0.096436	-0.003052	-0.29709	-0.000916	0.017242	0.089417	-0.015869	-0.011292
35.905	0.003967	0.011292	0.057831	-0.021515	-0.031433	0.22247	-0.02655	0.012665	0.14664	-0.33157	0.30426	-0.047302	0.031433	0.28091	0.18478	-1.1775	-0.082092	-0.26703	0.26718	-0.23895	0.027161	0.24292	0.14847	0.30456	0.068054	-0.009155	-0.54321	-0.005341	0.12528	0.011597	-0.019073	-0.011292
35.906	-0.000458	0.054626	0.079803	0.006256	-0.026703	0.038147	-0.044708	0.023804	0.054626	-0.13702	0.4129	-0.030212	0.016632	0.54153	0.10193	0.55512	-0.070343	-0.10086	0.12695	-0.38879	0.010834	0.22781	0.30777	0.2153	0.055695	-0.009155	-0.34485	-0.001221	0.095215	-0.021973	-0.018616	-0.014648
35.907	-0.000153	0.15427	0.05188	-0.005341	-0.040894	-0.14511	-0.10223	0.01709	0.053864	-0.24048	0.28564	-0.032043	-0.046844	0.71381	0.13397	0.22156	-0.02594	0.12756	0.12024	-0.41199	-0.000916	0.20233	0.4393	0.18188	0.048828	-0.006104	-0.14679	-0.007172	-0.010681	0.005951	-0.01358	-0.01358
35.908	0.006104	0.17746	0.035553	-0.004883	-0.033112	-0.14069	-0.18463	0.010681	0.13779	-0.44159	0.11826	0.096893	-0.11505	0.55679	-0.24109	0.74219	0.003967	0.37125	0.10117	-0.23071	-0.024109	0.18494	0.60623	0.16419	0.025635	-0.009613	-0.093994	-0.005188	-0.041504	0.014954	-0.014343	-0.016479
